# xmcd
# Copyright (C) 1995-1998 Ti Kan
#
# Track frame offsets:
#       150
#       31212
#       53066
#       76129
#       108514
#       139494
#       163911
#       198890
#       224806
#       258660
#       291427
#       321960
#
# Disc length: 4600 seconds
#
# Revision: 0
# Processed by: cddbd v1.5.2PL0 Copyright (c) Steve Scherf et al.
# Submitted via: CD-Transfer v1.0
#
DISCID=bd11f60c
DTITLE=Clubbing - 
DYEAR=12
DGENRE=
TTITLE0=Silhouettes (Original Mix)
TTITLE1=Reckless (Original Mix)
TTITLE2=Mandala (Deepside Deejays Remix)
TTITLE3=Sensations Of The Mind (Original Mix)
TTITLE4=Yeltaw (Original Mix)
TTITLE5=Bring That Bet Back (Original Mix)
TTITLE6=Remolino (Bluestone Loverush Remix)
TTITLE7=Up (Christian Marchi Remix)
TTITLE8=Throw (Slam's Rtm Remix)
TTITLE9=Critical (Original Mix)
TTITLE10=Viva (Original Mix)
TTITLE11=Groove, The (Original Mix)
EXTD=
EXTT0=
EXTT1=
EXTT2=
EXTT3=
EXTT4=
EXTT5=
EXTT6=
EXTT7=
EXTT8=
EXTT9=
EXTT10=
EXTT11=
PLAYORDER=
